<?xml version="1.0" encoding="iso-8859-1"?>
<!-- Generator: Adobe Illustrator 18.0.0, SVG Export Plug-In . SVG Version: 6.00 Build 0)  -->
<!DOCTYPE svg PUBLIC "-//W3C//DTD SVG 1.1//EN" "http://www.w3.org/Graphics/SVG/1.1/DTD/svg11.dtd">
<svg version="1.1" id="Capa_1" xmlns="http://www.w3.org/2000/svg" xmlns:xlink="http://www.w3.org/1999/xlink" x="0px" y="0px"
	 viewBox="0 0 401 401" style="enable-background:new 0 0 401 401;" xml:space="preserve">
<g>
	<path d="M384.375,285.729H95.836V43.381c0-8.629-6.997-15.625-15.626-15.625c-8.628,0-15.624,6.996-15.624,15.625v242.349H15.625
		C6.997,285.729,0,292.725,0,301.354c0,8.628,6.997,15.625,15.625,15.625h48.961v40.64c0,8.631,6.996,15.625,15.624,15.625
		c8.629,0,15.626-6.994,15.626-15.625v-40.64h288.539c8.627,0,15.625-6.997,15.625-15.625
		C400,292.725,393.002,285.729,384.375,285.729z"/>
	<path d="M133,254.596h43c2.762,0,5-2.239,5-5V150c0-2.761-2.238-5-5-5h-43c-2.762,0-5,2.239-5,5v99.596
		C128,252.357,130.238,254.596,133,254.596z"/>
	<path d="M203,254.596h43c2.762,0,5-2.239,5-5v-43.857c-4.229-2.819-8.209-6.076-11.885-9.751
		c-14.586-14.586-22.618-33.979-22.618-54.607c0-13.689,3.557-26.823,10.198-38.38H203c-2.762,0-5,2.239-5,5v141.596
		C198,252.357,200.238,254.596,203,254.596z"/>
	<path d="M268,214.232v35.364c0,2.761,2.238,5,5,5h43c2.762,0,5-2.239,5-5v-35.939c-8.635,3.263-17.839,4.952-27.274,4.952
		C284.824,218.608,276.155,217.105,268,214.232z"/>
	<path d="M293.726,204.105c13.068,0,25.517-3.986,35.987-11.354l52.718,52.718c2.125,2.124,4.909,3.185,7.691,3.185
		c2.784,0,5.568-1.062,7.692-3.185c4.247-4.248,4.247-11.136,0-15.383l-52.719-52.718c7.369-10.472,11.353-22.92,11.353-35.989
		c0-16.754-6.523-32.506-18.371-44.353c-11.848-11.848-27.599-18.372-44.353-18.372c-16.755,0-32.506,6.525-44.354,18.372
		C237.524,108.874,231,124.626,231,141.38c0,16.754,6.524,32.506,18.371,44.352C261.22,197.581,276.971,204.105,293.726,204.105z
		 M262.19,109.846c8.425-8.423,19.623-13.062,31.536-13.062c11.911,0,23.111,4.639,31.533,13.062
		c8.425,8.424,13.062,19.623,13.062,31.535c0,11.912-4.637,23.111-13.062,31.534c-8.422,8.424-19.622,13.063-31.533,13.063
		c-11.913,0-23.111-4.639-31.536-13.063c-8.422-8.423-13.061-19.623-13.061-31.534C249.129,129.468,253.768,118.27,262.19,109.846z"
		/>
	<path d="M289.367,161.999v8.504c0,0.899,0.73,1.628,1.629,1.628h5.885c0.899,0,1.628-0.729,1.628-1.628v-8.232
		c9.163-1.131,14.843-6.471,14.843-13.979c0-9.944-8.593-12.404-15.497-14.381c-5.346-1.531-8.592-2.663-8.592-5.478
		c0-1.937,1.728-3.048,4.741-3.048c3.358,0,8.674,1.621,13.226,4.035c0.392,0.208,0.849,0.249,1.271,0.108
		c0.42-0.138,0.766-0.441,0.959-0.84l3.205-6.651c0.369-0.766,0.086-1.687-0.65-2.114c-3.817-2.218-8.605-3.74-13.505-4.298v-7.71
		c0-0.899-0.728-1.628-1.628-1.628h-5.885c-0.899,0-1.629,0.729-1.629,1.628v8.054c-8.031,1.604-12.819,6.64-12.819,13.506
		c0,9.667,8.487,11.992,15.309,13.86c5.462,1.497,8.778,2.617,8.778,5.544c0,3.22-3.541,3.7-5.652,3.7
		c-4.404,0-10.588-2.361-15.036-5.742c-0.386-0.293-0.882-0.399-1.352-0.29c-0.472,0.109-0.87,0.422-1.088,0.854l-3.236,6.425
		c-0.353,0.701-0.155,1.553,0.469,2.028C278.806,158.946,283.993,161.124,289.367,161.999z"/>
</g>
<g>
</g>
<g>
</g>
<g>
</g>
<g>
</g>
<g>
</g>
<g>
</g>
<g>
</g>
<g>
</g>
<g>
</g>
<g>
</g>
<g>
</g>
<g>
</g>
<g>
</g>
<g>
</g>
<g>
</g>
</svg>
